<svg width="130" height="129" viewBox="0 0 130 129" xmlns="http://www.w3.org/2000/svg" xmlns:xlink="http://www.w3.org/1999/xlink" overflow="hidden"><g id="Groupe_1" transform="translate(-302 -199)"><g id="Ellipse_1" stroke="#F8F9FC" stroke-width="3" fill="#3B56A8" transform="translate(352 199)"><circle cx="15" cy="15" r="15" stroke="none"/><circle cx="15" cy="15" r="13.5" fill="none"/></g><g id="Ellipse_2" stroke="#F8F9FC" stroke-width="3" fill="#3B56A8" transform="translate(352 298)"><circle cx="15" cy="15" r="15" stroke="none"/><circle cx="15" cy="15" r="13.5" fill="none"/></g><g id="Ellipse_3" stroke="#F8F9FC" stroke-width="3" fill="#3B56A8" transform="translate(402 223)"><circle cx="15" cy="15" r="15" stroke="none"/><circle cx="15" cy="15" r="13.5" fill="none"/></g><g id="Ellipse_4" stroke="#F8F9FC" stroke-width="3" fill="#3B56A8" transform="translate(402 273)"><circle cx="15" cy="15" r="15" stroke="none"/><circle cx="15" cy="15" r="13.5" fill="none"/></g><g id="Ellipse_5" stroke="#F8F9FC" stroke-width="3" fill="#3B56A8" transform="translate(302 273)"><circle cx="15" cy="15" r="15" stroke="none"/><circle cx="15" cy="15" r="13.5" fill="none"/></g><g id="Ellipse_6" stroke="#F8F9FC" stroke-width="3" fill="#3B56A8" transform="translate(302 223)"><circle cx="15" cy="15" r="15" stroke="none"/><circle cx="15" cy="15" r="13.5" fill="none"/></g><g id="Ellipse_7" stroke="#3B56A8" stroke-width="2" fill="#F8F9FC" transform="translate(360 276)"><circle cx="7.5" cy="7.5" r="7.5" stroke="none"/><circle cx="7.5" cy="7.5" r="6.5" fill="none"/></g><g id="Ellipse_8" stroke="#3B56A8" stroke-width="2" fill="#F8F9FC" transform="translate(360 236)"><circle cx="7.5" cy="7.5" r="7.5" stroke="none"/><circle cx="7.5" cy="7.5" r="6.5" fill="none"/></g><g id="Ellipse_9" stroke="#3B56A8" stroke-width="2" fill="#F8F9FC" transform="translate(380 246)"><circle cx="7.5" cy="7.5" r="7.5" stroke="none"/><circle cx="7.5" cy="7.5" r="6.5" fill="none"/></g><g id="Ellipse_10" stroke="#3B56A8" stroke-width="2" fill="#F8F9FC" transform="translate(380 266)"><circle cx="7.5" cy="7.5" r="7.5" stroke="none"/><circle cx="7.5" cy="7.5" r="6.5" fill="none"/></g><g id="Ellipse_11" stroke="#3B56A8" stroke-width="2" fill="#F8F9FC" transform="translate(340 266)"><circle cx="7.5" cy="7.5" r="7.5" stroke="none"/><circle cx="7.5" cy="7.5" r="6.5" fill="none"/></g><g id="Ellipse_12" stroke="#3B56A8" stroke-width="2" fill="#F8F9FC" transform="translate(340 246)"><circle cx="7.5" cy="7.5" r="7.5" stroke="none"/><circle cx="7.5" cy="7.5" r="6.5" fill="none"/></g></g></svg>